<?xml version="1.0" encoding="UTF-8" standalone="no"?>
<!-- Created with Inkscape (http://www.inkscape.org/) -->

<svg
   xmlns:dc="http://purl.org/dc/elements/1.1/"
   xmlns:cc="http://creativecommons.org/ns#"
   xmlns:rdf="http://www.w3.org/1999/02/22-rdf-syntax-ns#"
   xmlns:svg="http://www.w3.org/2000/svg"
   xmlns="http://www.w3.org/2000/svg"
   version="1.1"
   width="741.65192"
   height="325.86249"
   id="svg2">
  <defs
     id="defs4" />
  <metadata
     id="metadata7">
    <rdf:RDF>
      <cc:Work
         rdf:about="">
        <dc:format>image/svg+xml</dc:format>
        <dc:type
           rdf:resource="http://purl.org/dc/dcmitype/StillImage" />
        <dc:title></dc:title>
      </cc:Work>
    </rdf:RDF>
  </metadata>
  <g
     transform="translate(1400.8259,-276.57372)"
     id="layer1">
    <path
       d="m -1100.5759,318.07372 0,274.35 -39.15,0 0,-274.35 -211.05,0 c -26.4,-1.35 -39.75,3 -40.05,13.2 l 0,-32.85 c 0,-1.95 1.65,-3.9 5.1,-5.85 6.6,-4.05 18.3,-6 34.95,-6 l 642.74996,0 c 25.95,0.15 38.85,4.05 38.85,11.85 l 0,31.95 c -0.15,-1.8 -1.65,-3.6 -4.35,-5.55 -6.3,-4.5 -17.85,-6.75 -34.5,-6.75 l -325.19996,0 0,274.35 -40.2,0 0,-274.35 -27.15,0 z m 94.95,54.45 c 0.75,-3.75 2.25,-7.35 4.35,-10.5 6.74996,-10.35 18.29996,-15.45 34.79996,-15.45 l 114.9,0 0,30.75 -114.9,0 0,67.5 114.9,0 0,31.5 -114.9,0 0,85.2 114.9,0 0,30.9 -114.9,0 c -6.6,0.15 -13.2,-1.05 -19.8,-3.6 -13.35,-4.8 -20.09996,-13.95 -20.09996,-27.3 l 0,-184.2 0.75,-4.8 z m 188.54996,-10.5 c 6.3,-10.35 17.4,-15.45 33.15,-15.45 l 75.9,0 19.5,4.2 c 12.9,5.25 19.35,14.1 19.35,26.55 l 0,55.05 c 0.15,12.15 -8.4,21.6 -25.65,28.5 l 12.6,6.9 c 8.25,6.15 12.6,13.65 13.05,22.65 l 0,102 -38.85,0 0,-102 c 0.6,-12.6 -8.25,-22.5 -26.4,-29.55 16.95,-6 25.8,-15.45 26.4,-28.5 l 0,-35.25 c 0.6,-13.2 -6,-19.8 -19.8,-19.8 l -56.1,0 0,215.1 -37.95,0 0,-215.1 4.8,-15.3 z m -533.69996,-15.45 85.95,0 14.7,3.75 c 9.75,4.95 14.7,13.95 14.7,27 l 0,55.05 c 0.3,12.15 -7.8,21.75 -24.45,28.95 l 11.7,7.5 c 7.95,6.6 12.15,13.8 12.75,21.6 l 0,71.1 -3.45,15.45 c -4.95,10.35 -13.5,15.45 -25.95,15.45 l -85.95,0 c -6.6,0.15 -13.35,-1.2 -20.1,-3.75 -13.35,-4.95 -19.95,-14.1 -19.95,-27.15 l 0,-184.2 c 0,-5.1 1.65,-10.2 5.1,-15.3 6.6,-10.35 18.3,-15.45 34.95,-15.45 z m 182.4,0 0,245.85 -38.85,0 0,-245.85 38.85,0 z m -105.75,44.7 0,41.1 c -4.8,14.55 -13.5,24 -26.1,28.5 l 13.2,8.1 c 8.55,6.9 12.9,14.1 12.9,21.45 l 0,57.3 c 0,9.15 -8.7,13.8 -26.1,13.8 l -50.55,0 0,-184.2 50.55,0 13.2,1.8 c 8.55,2.25 12.9,6.3 12.9,12.15"
       id="path3017"
       style="fill:#1a1a1a;fill-opacity:1;fill-rule:evenodd;stroke:none" />
  </g>
</svg>
